<mxfile host="app.diagrams.net" modified="2020-11-13T13:20:12.488Z" agent="5.0 (Windows NT 10.0; Win64; x64) AppleWebKit/537.36 (KHTML, like Gecko) Chrome/86.0.4240.193 Safari/537.36" etag="D-I2bXDESdWwa28JDWhD" version="13.9.7" type="github">
  <diagram id="wt7tHOF2HcGmLOkCdblr" name="Page-1">
    <mxGraphModel dx="1240" dy="643" grid="1" gridSize="10" guides="1" tooltips="1" connect="1" arrows="1" fold="1" page="1" pageScale="1" pageWidth="827" pageHeight="1169" math="0" shadow="0">
      <root>
        <mxCell id="0" />
        <mxCell id="1" parent="0" />
        <mxCell id="_88rp77C_V87h7c0kE2f-8" value="Barang" style="text;html=1;resizable=0;autosize=1;align=center;verticalAlign=middle;points=[];fillColor=none;strokeColor=none;rounded=0;" vertex="1" parent="1">
          <mxGeometry x="550" y="70" width="50" height="20" as="geometry" />
        </mxCell>
        <object label="" Petani="" id="_88rp77C_V87h7c0kE2f-1">
          <mxCell style="rounded=1;whiteSpace=wrap;html=1;" vertex="1" parent="1">
            <mxGeometry x="40" y="60" width="100" height="50" as="geometry" />
          </mxCell>
        </object>
        <mxCell id="_88rp77C_V87h7c0kE2f-2" value="" style="endArrow=classic;html=1;exitX=1;exitY=0.5;exitDx=0;exitDy=0;" edge="1" parent="1" source="_88rp77C_V87h7c0kE2f-1" target="_88rp77C_V87h7c0kE2f-3">
          <mxGeometry width="50" height="50" relative="1" as="geometry">
            <mxPoint x="390" y="340" as="sourcePoint" />
            <mxPoint x="340" y="85" as="targetPoint" />
          </mxGeometry>
        </mxCell>
        <mxCell id="_88rp77C_V87h7c0kE2f-3" value="" style="ellipse;whiteSpace=wrap;html=1;aspect=fixed;" vertex="1" parent="1">
          <mxGeometry x="300" y="45" width="80" height="80" as="geometry" />
        </mxCell>
        <mxCell id="_88rp77C_V87h7c0kE2f-4" value="" style="endArrow=classic;html=1;exitX=1;exitY=0.5;exitDx=0;exitDy=0;" edge="1" parent="1" source="_88rp77C_V87h7c0kE2f-3" target="_88rp77C_V87h7c0kE2f-5">
          <mxGeometry width="50" height="50" relative="1" as="geometry">
            <mxPoint x="390" y="340" as="sourcePoint" />
            <mxPoint x="580" y="80" as="targetPoint" />
          </mxGeometry>
        </mxCell>
        <mxCell id="_88rp77C_V87h7c0kE2f-5" value="" style="shape=process;whiteSpace=wrap;html=1;backgroundOutline=1;" vertex="1" parent="1">
          <mxGeometry x="520.0000000000002" y="55" width="120" height="60" as="geometry" />
        </mxCell>
        <mxCell id="_88rp77C_V87h7c0kE2f-6" value="Petani" style="text;html=1;resizable=0;autosize=1;align=center;verticalAlign=middle;points=[];fillColor=none;strokeColor=none;rounded=0;" vertex="1" parent="1">
          <mxGeometry x="60" y="70" width="50" height="20" as="geometry" />
        </mxCell>
        <mxCell id="_88rp77C_V87h7c0kE2f-7" value="Data" style="text;html=1;resizable=0;autosize=1;align=center;verticalAlign=middle;points=[];fillColor=none;strokeColor=none;rounded=0;" vertex="1" parent="1">
          <mxGeometry x="320" y="70" width="40" height="20" as="geometry" />
        </mxCell>
        <mxCell id="_88rp77C_V87h7c0kE2f-9" value="Data barang" style="text;html=1;resizable=0;autosize=1;align=center;verticalAlign=middle;points=[];fillColor=none;strokeColor=none;rounded=0;" vertex="1" parent="1">
          <mxGeometry x="540" y="75" width="80" height="20" as="geometry" />
        </mxCell>
        <mxCell id="_88rp77C_V87h7c0kE2f-10" value="" style="ellipse;whiteSpace=wrap;html=1;aspect=fixed;" vertex="1" parent="1">
          <mxGeometry x="300" y="160" width="80" height="80" as="geometry" />
        </mxCell>
        <mxCell id="_88rp77C_V87h7c0kE2f-11" value="" style="endArrow=none;html=1;exitX=0.5;exitY=1;exitDx=0;exitDy=0;entryX=0;entryY=0.5;entryDx=0;entryDy=0;" edge="1" parent="1" source="_88rp77C_V87h7c0kE2f-1" target="_88rp77C_V87h7c0kE2f-10">
          <mxGeometry width="50" height="50" relative="1" as="geometry">
            <mxPoint x="390" y="340" as="sourcePoint" />
            <mxPoint x="440" y="290" as="targetPoint" />
            <Array as="points">
              <mxPoint x="90" y="200" />
            </Array>
          </mxGeometry>
        </mxCell>
        <mxCell id="_88rp77C_V87h7c0kE2f-12" value="Data" style="text;html=1;resizable=0;autosize=1;align=center;verticalAlign=middle;points=[];fillColor=none;strokeColor=none;rounded=0;" vertex="1" parent="1">
          <mxGeometry x="320" y="190" width="40" height="20" as="geometry" />
        </mxCell>
        <mxCell id="_88rp77C_V87h7c0kE2f-13" value="" style="shape=process;whiteSpace=wrap;html=1;backgroundOutline=1;" vertex="1" parent="1">
          <mxGeometry x="520" y="170" width="120" height="70" as="geometry" />
        </mxCell>
        <mxCell id="_88rp77C_V87h7c0kE2f-14" value="Data Harga barang" style="text;html=1;resizable=0;autosize=1;align=center;verticalAlign=middle;points=[];fillColor=none;strokeColor=none;rounded=0;" vertex="1" parent="1">
          <mxGeometry x="520" y="195" width="120" height="20" as="geometry" />
        </mxCell>
        <mxCell id="_88rp77C_V87h7c0kE2f-15" value="" style="ellipse;whiteSpace=wrap;html=1;aspect=fixed;" vertex="1" parent="1">
          <mxGeometry x="300" y="270" width="80" height="80" as="geometry" />
        </mxCell>
        <mxCell id="_88rp77C_V87h7c0kE2f-16" value="" style="endArrow=classic;html=1;exitX=0.25;exitY=1;exitDx=0;exitDy=0;entryX=0.018;entryY=0.623;entryDx=0;entryDy=0;entryPerimeter=0;" edge="1" parent="1" source="_88rp77C_V87h7c0kE2f-1" target="_88rp77C_V87h7c0kE2f-15">
          <mxGeometry width="50" height="50" relative="1" as="geometry">
            <mxPoint x="390" y="340" as="sourcePoint" />
            <mxPoint x="440" y="290" as="targetPoint" />
            <Array as="points">
              <mxPoint x="65" y="320" />
            </Array>
          </mxGeometry>
        </mxCell>
        <mxCell id="_88rp77C_V87h7c0kE2f-17" value="Data" style="text;html=1;resizable=0;autosize=1;align=center;verticalAlign=middle;points=[];fillColor=none;strokeColor=none;rounded=0;" vertex="1" parent="1">
          <mxGeometry x="320" y="300" width="40" height="20" as="geometry" />
        </mxCell>
        <mxCell id="_88rp77C_V87h7c0kE2f-18" value="" style="endArrow=classic;html=1;exitX=1;exitY=0.5;exitDx=0;exitDy=0;" edge="1" parent="1" source="_88rp77C_V87h7c0kE2f-10">
          <mxGeometry width="50" height="50" relative="1" as="geometry">
            <mxPoint x="390" y="340" as="sourcePoint" />
            <mxPoint x="517" y="200" as="targetPoint" />
          </mxGeometry>
        </mxCell>
        <mxCell id="_88rp77C_V87h7c0kE2f-22" value="" style="shape=process;whiteSpace=wrap;html=1;backgroundOutline=1;" vertex="1" parent="1">
          <mxGeometry x="520" y="280" width="120" height="60" as="geometry" />
        </mxCell>
        <mxCell id="_88rp77C_V87h7c0kE2f-23" value="" style="endArrow=classic;html=1;exitX=1;exitY=0.5;exitDx=0;exitDy=0;entryX=0;entryY=0.5;entryDx=0;entryDy=0;" edge="1" parent="1" source="_88rp77C_V87h7c0kE2f-15" target="_88rp77C_V87h7c0kE2f-22">
          <mxGeometry width="50" height="50" relative="1" as="geometry">
            <mxPoint x="390" y="340" as="sourcePoint" />
            <mxPoint x="440" y="290" as="targetPoint" />
          </mxGeometry>
        </mxCell>
        <mxCell id="_88rp77C_V87h7c0kE2f-24" value="Data Jenis Barang" style="text;html=1;resizable=0;autosize=1;align=center;verticalAlign=middle;points=[];fillColor=none;strokeColor=none;rounded=0;" vertex="1" parent="1">
          <mxGeometry x="180" y="95" width="110" height="20" as="geometry" />
        </mxCell>
        <mxCell id="_88rp77C_V87h7c0kE2f-25" value="Data Harga Barang" style="text;html=1;resizable=0;autosize=1;align=center;verticalAlign=middle;points=[];fillColor=none;strokeColor=none;rounded=0;" vertex="1" parent="1">
          <mxGeometry x="160" y="210" width="120" height="20" as="geometry" />
        </mxCell>
        <mxCell id="_88rp77C_V87h7c0kE2f-26" value="Data Penjualan" style="text;html=1;resizable=0;autosize=1;align=center;verticalAlign=middle;points=[];fillColor=none;strokeColor=none;rounded=0;" vertex="1" parent="1">
          <mxGeometry x="525" y="300" width="100" height="20" as="geometry" />
        </mxCell>
        <mxCell id="_88rp77C_V87h7c0kE2f-27" value="Data Barang Terjual" style="text;html=1;resizable=0;autosize=1;align=center;verticalAlign=middle;points=[];fillColor=none;strokeColor=none;rounded=0;" vertex="1" parent="1">
          <mxGeometry x="160" y="320" width="120" height="20" as="geometry" />
        </mxCell>
      </root>
    </mxGraphModel>
  </diagram>
</mxfile>
